<?xml version="1.0" encoding="UTF-8" standalone="no"?>
<svg
   width="32pt"
   height="32pt"
   viewBox="0 0 22.577778 22.577778"
   version="1.1"
   id="svg831"
   inkscape:version="1.1.2 (1:1.1+202202050950+0a00cf5339)"
   sodipodi:docname="8 - Shopping Basket.svg"
   inkscape:export-filename="/media/taufikramadhan/Data/Tr Design Studio/Project Design/TR Creative Design/Icon Design/Project Hiring/Icon Icons/019 - Commerce And Shopping/5 - Send/8 - Shopping Basket.png"
   inkscape:export-xdpi="576"
   inkscape:export-ydpi="576"
   xmlns:inkscape="http://www.inkscape.org/namespaces/inkscape"
   xmlns:sodipodi="http://sodipodi.sourceforge.net/DTD/sodipodi-0.dtd"
   xmlns="http://www.w3.org/2000/svg"
   xmlns:svg="http://www.w3.org/2000/svg"
   xmlns:rdf="http://www.w3.org/1999/02/22-rdf-syntax-ns#"
   xmlns:cc="http://creativecommons.org/ns#"
   xmlns:dc="http://purl.org/dc/elements/1.1/">
  <defs
     id="defs825">
    <pattern
       id="EMFhbasepattern"
       patternUnits="userSpaceOnUse"
       width="6"
       height="6"
       x="0"
       y="0" />
    <pattern
       id="EMFhbasepattern-9"
       patternUnits="userSpaceOnUse"
       width="6"
       height="6"
       x="0"
       y="0" />
    <pattern
       id="EMFhbasepattern-0"
       patternUnits="userSpaceOnUse"
       width="6"
       height="6"
       x="0"
       y="0" />
    <pattern
       id="EMFhbasepattern-7"
       patternUnits="userSpaceOnUse"
       width="6"
       height="6"
       x="0"
       y="0" />
    <pattern
       id="EMFhbasepattern-2"
       patternUnits="userSpaceOnUse"
       width="6"
       height="6"
       x="0"
       y="0" />
    <pattern
       id="EMFhbasepattern-98"
       patternUnits="userSpaceOnUse"
       width="6"
       height="6"
       x="0"
       y="0" />
    <pattern
       id="EMFhbasepattern-6"
       patternUnits="userSpaceOnUse"
       width="6"
       height="6"
       x="0"
       y="0" />
    <pattern
       id="EMFhbasepattern-01"
       patternUnits="userSpaceOnUse"
       width="6"
       height="6"
       x="0"
       y="0" />
    <pattern
       id="EMFhbasepattern-07"
       patternUnits="userSpaceOnUse"
       width="6"
       height="6"
       x="0"
       y="0" />
    <pattern
       id="EMFhbasepattern-8"
       patternUnits="userSpaceOnUse"
       width="6"
       height="6"
       x="0"
       y="0" />
    <pattern
       id="EMFhbasepattern-4"
       patternUnits="userSpaceOnUse"
       width="6"
       height="6"
       x="0"
       y="0" />
    <pattern
       id="EMFhbasepattern-40"
       patternUnits="userSpaceOnUse"
       width="6"
       height="6"
       x="0"
       y="0" />
    <pattern
       id="EMFhbasepattern-08"
       patternUnits="userSpaceOnUse"
       width="6"
       height="6"
       x="0"
       y="0" />
    <pattern
       id="EMFhbasepattern-04"
       patternUnits="userSpaceOnUse"
       width="6"
       height="6"
       x="0"
       y="0" />
    <pattern
       id="EMFhbasepattern-014"
       patternUnits="userSpaceOnUse"
       width="6"
       height="6"
       x="0"
       y="0" />
    <pattern
       id="EMFhbasepattern-27"
       patternUnits="userSpaceOnUse"
       width="6"
       height="6"
       x="0"
       y="0" />
    <pattern
       id="EMFhbasepattern-09"
       patternUnits="userSpaceOnUse"
       width="6"
       height="6"
       x="0"
       y="0" />
    <pattern
       id="EMFhbasepattern-5"
       patternUnits="userSpaceOnUse"
       width="6"
       height="6"
       x="0"
       y="0" />
    <pattern
       id="EMFhbasepattern-018"
       patternUnits="userSpaceOnUse"
       width="6"
       height="6"
       x="0"
       y="0" />
  </defs>
  <sodipodi:namedview
     id="base"
     pagecolor="#ffffff"
     bordercolor="#666666"
     borderopacity="1.0"
     inkscape:pageopacity="0.0"
     inkscape:pageshadow="2"
     inkscape:zoom="4.4249417"
     inkscape:cx="41.243481"
     inkscape:cy="44.746352"
     inkscape:document-units="pt"
     inkscape:current-layer="layer1"
     showgrid="false"
     units="pt"
     inkscape:window-width="1366"
     inkscape:window-height="705"
     inkscape:window-x="0"
     inkscape:window-y="31"
     inkscape:window-maximized="1"
     inkscape:pagecheckerboard="true"
     inkscape:showpageshadow="false"
     inkscape:object-paths="true"
     inkscape:snap-intersection-paths="true"
     inkscape:snap-smooth-nodes="true"
     inkscape:snap-midpoints="true"
     showguides="true"
     inkscape:snap-bbox="true"
     inkscape:bbox-nodes="true"
     inkscape:snap-nodes="false"
     inkscape:snap-global="true"
     inkscape:document-rotation="0">
    <inkscape:grid
       type="xygrid"
       id="grid1378" />
    <sodipodi:guide
       position="0.97013831,21.607643"
       orientation="78.000048,0"
       id="guide1380"
       inkscape:locked="false" />
    <sodipodi:guide
       position="0.97013831,0.97013129"
       orientation="0,78.000005"
       id="guide1382"
       inkscape:locked="false" />
    <sodipodi:guide
       position="21.607639,0.97013129"
       orientation="-78.000048,0"
       id="guide1384"
       inkscape:locked="false" />
    <sodipodi:guide
       position="21.607639,21.607643"
       orientation="0,-78.000005"
       id="guide1386"
       inkscape:locked="false" />
  </sodipodi:namedview>
  <metadata
     id="metadata828">
    <rdf:RDF>
      <cc:Work
         rdf:about="">
        <dc:format>image/svg+xml</dc:format>
        <dc:type
           rdf:resource="http://purl.org/dc/dcmitype/StillImage" />
      </cc:Work>
    </rdf:RDF>
  </metadata>
  <g
     inkscape:label="Icon"
     inkscape:groupmode="layer"
     id="layer1"
     transform="translate(0,-274.42223)">
    <g
       id="g21887"
       style="display:inline;stroke-width:0.7948"
       transform="matrix(1.2581782,0,0,1.2581782,39.014271,-77.314904)">
      <g
         id="g824389"
         style="display:inline;stroke-width:0.7948">
        <path
           style="color:#000000;fill:#a8c2e1;fill-opacity:1;stroke-width:0.7948;stroke-linecap:round;stroke-linejoin:round;stroke-miterlimit:1.5;-inkscape-stroke:none"
           d="m -29.296875,288.07227 a 0.26460996,0.26460996 0 0 0 -0.263672,0.29492 l 0.767578,6.6875 a 0.26460996,0.26460996 0 0 0 0,0.002 c 0.05923,0.49365 0.427546,0.84874 0.88086,0.99414 l 0.11914,0.24414 c 0.0327,0.0681 0.06677,0.15569 0.142578,0.25 0.0758,0.0943 0.226576,0.18946 0.386719,0.18945 h 10.455078 c 0.160143,10e-6 0.310915,-0.0951 0.386719,-0.18945 0.0758,-0.0943 0.109875,-0.18191 0.142578,-0.25 l 0.117188,-0.24414 c 0.454169,-0.14493 0.823502,-0.49988 0.882812,-0.99414 a 0.26460996,0.26460996 0 0 0 0,-0.002 l 0.767578,-6.6875 a 0.26460996,0.26460996 0 0 0 -0.263672,-0.29492 z"
           id="path1626445" />
        <path
           id="path546100"
           style="color:#000000;fill:#91a9d9;fill-opacity:1;stroke-width:0.7948;stroke-linecap:round;stroke-linejoin:round;stroke-miterlimit:1.5;-inkscape-stroke:none"
           d="m -29.296921,288.07237 a 0.26460996,0.26460996 0 0 0 -0.263549,0.29508 l 0.08733,0.76326 h 14.168645 a 0.26460996,0.26460996 0 0 1 0.263549,0.29507 l -0.738456,6.43733 c 0.266503,-0.1852 0.45887,-0.46201 0.500228,-0.80667 a 0.26460996,0.26460996 0 0 0 0,-5.3e-4 0.26460996,0.26460996 0 0 0 0,-5.3e-4 0.26460996,0.26460996 0 0 0 0,-5.2e-4 l 0.767395,-6.68745 a 0.26460996,0.26460996 0 0 0 -0.26355,-0.29507 z" />
        <path
           style="color:#000000;fill:#6788cb;fill-opacity:1;stroke-width:0.7948;stroke-linecap:round;stroke-linejoin:round;stroke-miterlimit:1.5;-inkscape-stroke:none"
           d="m -26.974609,289.52539 c -0.463826,0 -0.845703,0.38188 -0.845703,0.8457 v 0.8711 c 0,0.46382 0.381877,0.8457 0.845703,0.8457 0.463825,0 0.845703,-0.38188 0.845703,-0.8457 v -0.8711 c 0,-0.46382 -0.381878,-0.8457 -0.845703,-0.8457 z"
           id="path1626451" />
        <path
           style="color:#000000;fill:#6788cb;fill-opacity:1;stroke-width:0.7948;stroke-linecap:round;stroke-linejoin:round;stroke-miterlimit:1.5;-inkscape-stroke:none"
           d="m -24.505859,289.52539 c -0.463826,0 -0.84375,0.38188 -0.84375,0.8457 v 0.8711 c 0,0.46382 0.379924,0.8457 0.84375,0.8457 0.463825,0 0.845703,-0.38188 0.845703,-0.8457 v -0.8711 c 0,-0.46382 -0.381878,-0.8457 -0.845703,-0.8457 z"
           id="path1626457" />
        <path
           style="color:#000000;fill:#6788cb;fill-opacity:1;stroke-width:0.7948;stroke-linecap:round;stroke-linejoin:round;stroke-miterlimit:1.5;-inkscape-stroke:none"
           d="m -22.037109,289.52539 c -0.463826,0 -0.84375,0.38188 -0.84375,0.8457 v 0.8711 c 0,0.46382 0.379924,0.8457 0.84375,0.8457 0.463825,0 0.845703,-0.38188 0.845703,-0.8457 v -0.8711 c 0,-0.46382 -0.381878,-0.8457 -0.845703,-0.8457 z"
           id="path1626463" />
        <path
           style="color:#000000;fill:#6788cb;fill-opacity:1;stroke-width:0.7948;stroke-linecap:round;stroke-linejoin:round;stroke-miterlimit:1.5;-inkscape-stroke:none"
           d="m -19.566406,289.52539 c -0.463826,0 -0.845703,0.38188 -0.845703,0.8457 v 0.8711 c 0,0.46382 0.381877,0.8457 0.845703,0.8457 0.463825,0 0.84375,-0.38188 0.84375,-0.8457 v -0.8711 c 0,-0.46382 -0.379925,-0.8457 -0.84375,-0.8457 z"
           id="path1626469" />
        <path
           style="color:#000000;fill:#6788cb;fill-opacity:1;stroke-width:0.7948;stroke-linecap:round;stroke-linejoin:round;stroke-miterlimit:1.5;-inkscape-stroke:none"
           d="m -17.097656,289.52539 c -0.463826,0 -0.845703,0.38188 -0.845703,0.8457 v 0.8711 c 0,0.46382 0.381877,0.8457 0.845703,0.8457 0.463825,0 0.84375,-0.38188 0.84375,-0.8457 v -0.8711 c 0,-0.46382 -0.379925,-0.8457 -0.84375,-0.8457 z"
           id="path1626475" />
        <path
           style="color:#000000;fill:#6788cb;fill-opacity:1;stroke-width:0.7948;stroke-linecap:round;stroke-linejoin:round;stroke-miterlimit:1.5;-inkscape-stroke:none"
           d="m -25.740234,292.7207 c -0.463826,0 -0.845703,0.38188 -0.845703,0.84571 v 0.87109 c 0,0.46383 0.381877,0.8457 0.845703,0.8457 0.463825,0 0.845703,-0.38187 0.845703,-0.8457 v -0.87109 c 0,-0.46383 -0.381878,-0.84571 -0.845703,-0.84571 z"
           id="path1626481" />
        <path
           style="color:#000000;fill:#6788cb;fill-opacity:1;stroke-width:0.7948;stroke-linecap:round;stroke-linejoin:round;stroke-miterlimit:1.5;-inkscape-stroke:none"
           d="m -23.271484,292.7207 c -0.463826,0 -0.84375,0.38188 -0.84375,0.84571 v 0.87109 c 0,0.46383 0.379924,0.8457 0.84375,0.8457 0.463825,0 0.845703,-0.38187 0.845703,-0.8457 v -0.87109 c 0,-0.46383 -0.381878,-0.84571 -0.845703,-0.84571 z"
           id="path1626487" />
        <path
           style="color:#000000;fill:#6788cb;fill-opacity:1;stroke-width:0.7948;stroke-linecap:round;stroke-linejoin:round;stroke-miterlimit:1.5;-inkscape-stroke:none"
           d="m -20.800781,292.7207 c -0.463826,0 -0.845703,0.38188 -0.845703,0.84571 v 0.87109 c 0,0.46383 0.381877,0.8457 0.845703,0.8457 0.463825,0 0.84375,-0.38187 0.84375,-0.8457 v -0.87109 c 0,-0.46383 -0.379925,-0.84571 -0.84375,-0.84571 z"
           id="path1626493" />
        <path
           style="color:#000000;fill:#6788cb;fill-opacity:1;stroke-width:0.7948;stroke-linecap:round;stroke-linejoin:round;stroke-miterlimit:1.5;-inkscape-stroke:none"
           d="m -18.332031,292.7207 c -0.463826,0 -0.845703,0.38188 -0.845703,0.84571 v 0.87109 c 0,0.46383 0.381877,0.8457 0.845703,0.8457 0.463825,0 0.84375,-0.38187 0.84375,-0.8457 v -0.87109 c 0,-0.46383 -0.379925,-0.84571 -0.84375,-0.84571 z"
           id="path1626499" />
        <path
           style="color:#000000;fill:#a7c1e1;fill-opacity:0.964706;stroke-width:0.7948;stroke-linecap:round;stroke-linejoin:round;stroke-miterlimit:1.5;-inkscape-stroke:none"
           d="m -23.771484,285.75 a 0.26461145,0.26461145 0 0 0 -0.103516,0.0215 l -1.292969,0.5586 h -4.128906 c -0.463833,0 -0.845703,0.38188 -0.845703,0.8457 v 0.58008 c 0,0.46383 0.381881,0.8457 0.845703,0.8457 h 14.521484 c 0.463821,0 0.845703,-0.38187 0.845703,-0.8457 v -0.58008 c 0,-0.46382 -0.381871,-0.8457 -0.845703,-0.8457 h -4.128906 l -1.292969,-0.5586 a 0.26461145,0.26461145 0 0 0 -0.103515,-0.0215 z"
           id="path1626505" />
        <path
           id="path542702"
           style="fill:#6788cb;fill-opacity:1;stroke-width:3.00397;stroke-linecap:round;stroke-linejoin:round;stroke-miterlimit:1.5"
           d="m -89.845703,21.480469 a 1.0001063,1.0001063 0 0 0 -0.390625,0.08203 l -4.886719,2.109375 h -3.652344 l 2.384766,4.130859 a 1.8456388,1.8456388 0 0 0 0.0078,0 c 1.536355,2.660561 4.982376,3.700588 7.683593,2.140625 2.696969,-1.561058 3.53036,-5.069568 1.994141,-7.730468 l -0.423828,-0.732422 z"
           transform="matrix(0.26458334,0,0,0.26458334,0,280.06666)" />
        <path
           id="path536571"
           style="color:#000000;fill:#6788cb;fill-opacity:1;stroke-width:0.7948;stroke-linecap:round;stroke-linejoin:round;stroke-miterlimit:1.5;-inkscape-stroke:none"
           d="m -23.771676,285.75003 a 0.26461147,0.26461147 0 0 0 -0.103353,0.0217 l -1.292944,0.5581 h -4.128948 c -0.463832,0 -0.845426,0.38213 -0.845426,0.84595 v 0.52916 c 0,-0.46382 0.381594,-0.84542 0.845426,-0.84542 h 4.128948 l 1.292944,-0.55863 a 0.26461147,0.26461147 0 0 1 0.103353,-0.0217 h 3.471106 a 0.26461147,0.26461147 0 0 1 0.103353,0.0217 l 1.292944,0.55863 h 4.128947 c 0.463832,0 0.845427,0.3816 0.845427,0.84542 v -0.52916 c 0,-0.46382 -0.381595,-0.84595 -0.845427,-0.84595 h -4.128947 l -1.292944,-0.5581 a 0.26461147,0.26461147 0 0 0 -0.103353,-0.0217 z" />
        <path
           style="color:#000000;fill:#3a4d5c;fill-opacity:1;stroke-width:0.7948;stroke-linecap:round;stroke-linejoin:round;stroke-miterlimit:1.5;-inkscape-stroke:none"
           d="m -26.941406,280.37109 c -0.281343,-0.0754 -0.591029,-0.0447 -0.861328,0.11133 -0.540597,0.31212 -0.728128,1.01214 -0.416016,1.55274 0.08605,0.14902 0.227822,0.24978 0.369141,0.3457 l 2.769531,4.79687 c 0.27768,0.48096 0.890769,0.66374 1.367187,0.38868 0.476473,-0.27502 0.625345,-0.89794 0.347657,-1.37891 l -2.769532,-4.79688 -0.002,-0.002 c -0.01263,-0.16941 -0.02779,-0.34193 -0.113281,-0.49023 -0.156058,-0.2703 -0.410064,-0.45196 -0.691406,-0.52735 z"
           id="path1626511" />
        <path
           id="path542581"
           style="fill:#6788cb;fill-opacity:1;stroke-width:3.00397;stroke-linecap:round;stroke-linejoin:round;stroke-miterlimit:1.5"
           d="m -79.443359,21.480469 -0.421875,0.730469 c -1.53622,2.6609 -0.702829,6.167457 1.99414,7.728515 2.701217,1.559962 6.147239,0.519936 7.683594,-2.140625 a 1.8456388,1.8456388 0 0 0 0.0078,0 l 2.382813,-4.126953 h -3.652344 L -76.335938,21.5625 a 1.0001063,1.0001063 0 0 0 -0.390624,-0.08203 z"
           transform="matrix(0.26458334,0,0,0.26458334,0,280.06666)" />
        <path
           style="color:#000000;fill:#3a4d5c;fill-opacity:1;stroke-width:0.7948;stroke-linecap:round;stroke-linejoin:round;stroke-miterlimit:1.5;-inkscape-stroke:none"
           d="m -17.130859,280.37109 c -0.281343,0.0754 -0.535349,0.25705 -0.691407,0.52735 -0.08549,0.1483 -0.10065,0.32082 -0.113281,0.49023 -5.9e-5,7.9e-4 -0.0019,0.001 -0.002,0.002 l -2.769531,4.79688 c -0.277683,0.48098 -0.128789,1.10387 0.347656,1.37891 0.476446,0.27515 1.089505,0.0922 1.367188,-0.38868 l 2.769531,-4.79687 0.002,-0.002 c 0.140299,-0.0957 0.281607,-0.19554 0.367187,-0.34375 0.312112,-0.5406 0.124582,-1.24062 -0.416015,-1.55274 -0.2703,-0.15606 -0.579986,-0.18671 -0.861328,-0.11133 z"
           id="path1626517" />
      </g>
      <path
         id="rect200218"
         style="color:#000000;fill:#000000;stroke-width:3.00397;stroke-linecap:round;stroke-linejoin:round;stroke-miterlimit:1.5;-inkscape-stroke:none"
         d="m -102.94922,1.0019531 c -0.7263,-4.562e-4 -1.46238,0.183309 -2.13281,0.5703125 -2.0432,1.1796662 -2.75189,3.8239372 -1.57227,5.8671875 0.36931,0.6395906 0.89844,1.1719785 1.53125,1.546875 l 10.332034,17.8906249 c 1.0495,1.817802 3.367334,2.508347 5.167969,1.46875 1.68829,-0.97448 2.288562,-3.104918 1.492188,-4.865234 h 9.689453 c -0.79635,1.760335 -0.196004,3.890683 1.492187,4.865234 1.800741,1.039937 4.118458,0.348749 5.167969,-1.46875 L -61.453125,8.9882812 c 0.634426,-0.3749389 1.165121,-0.9079855 1.535156,-1.5488281 1.179629,-2.0432503 0.470917,-4.6875213 -1.572265,-5.8671875 -1.021622,-0.58983304 -2.192524,-0.70677576 -3.25586,-0.421875 -1.06334,0.2849764 -2.023448,0.9725722 -2.613281,1.9941406 -0.366824,0.6363464 -0.561211,1.3563421 -0.570313,2.0878907 L -77.308594,21.480469 H -89.263672 L -98.642578,5.2382812 c -0.0082,-0.7335705 -0.202559,-1.4557481 -0.570313,-2.09375 -0.589825,-1.0216062 -1.549939,-1.709202 -2.613279,-1.9941406 -0.36553,-0.097961 -0.74261,-0.1481985 -1.12305,-0.1484375 z m -0.53911,6.8300781 c -0.0932,-0.2113317 -0.2568,-0.3838622 -0.46284,-0.4882812 -0.4038,-0.2006929 -0.74127,-0.5176268 -0.9668,-0.9082031 -0.63921,-1.1071748 -0.26732,-2.4897126 0.83985,-3.1289063 0.34598,-0.1997598 0.71892,-0.3125 1.0879,-0.3125 0.8114,-0.023038 1.6035,0.3930882 2.04296,1.1542969 0.225,0.3903496 0.33067,0.8335527 0.30274,1.2832031 -0.0141,0.2222934 0.0464,0.4429425 0.17187,0.6269532 l 10.435501,18.0781252 c 0.534285,0.925417 0.250659,1.999864 -0.582032,2.480469 -0.832796,0.480831 -1.909085,0.186984 -2.443359,-0.738282 z m 39.794981,-4.8378906 c 0.404445,-0.00829 0.818647,0.092777 1.199218,0.3125 1.107134,0.6391937 1.479049,2.0217693 0.839844,3.1289063 -0.225524,0.3905763 -0.562932,0.7073212 -0.966797,0.9082031 -0.209594,0.1052754 -0.375514,0.2808742 -0.46875,0.4960938 l -0.0039,-0.00195 -10.416016,18.0410152 c -0.534262,0.925229 -1.610771,1.219151 -2.443359,0.738282 -0.832743,-0.480681 -1.116332,-1.554976 -0.582031,-2.480469 l 10.408203,-18.0175782 -0.01172,-0.00586 c 0.151741,-0.1935444 0.226838,-0.4362188 0.210938,-0.6816406 -0.02797,-0.4496882 0.07774,-0.8928913 0.302734,-1.2832031 0.419478,-0.726509 1.159518,-1.1384715 1.931641,-1.1542969 z M -110.72852,23.671875 c -1.75307,0 -3.19531,1.444245 -3.19531,3.197266 V 29.0625 c 0,1.437049 0.96986,2.664198 2.28516,3.060547 l 2.81445,24.525391 c -1e-5,0.0025 -1e-5,0.0021 0,0.0059 0.23157,1.930017 1.62264,3.471922 3.42383,3.970703 0.27807,0.591069 0.62719,1.201112 0.89453,1.654297 0.28649,0.356409 0.85763,0.716797 1.46289,0.716797 h 39.513673 c 0.605265,0 1.176387,-0.360199 1.462891,-0.716797 0.363958,-0.526128 0.616837,-1.079051 0.884765,-1.652344 1.805888,-0.495974 3.201594,-2.039263 3.433594,-3.972656 1.1e-5,-0.0025 1.1e-5,-0.0021 0,-0.0059 l 2.814453,-24.525391 c 1.3153,-0.396349 2.285157,-1.623498 2.285156,-3.060547 v -2.193359 c 0,-1.753021 -1.442246,-3.197266 -3.195312,-3.197266 h -12.076172 c -0.552469,0.0019 -1.000212,0.451453 -0.998047,1.003906 0.0019,0.549581 0.448455,0.996157 0.998047,0.998047 h 12.076172 c 0.679582,0 1.195312,0.515754 1.195312,1.195313 V 29.0625 c 0,0.679672 -0.515689,1.195312 -1.195312,1.195312 h -54.88477 c -0.67963,0 -1.19531,-0.51564 -1.19531,-1.195312 v -2.193359 c 0,-0.679559 0.51573,-1.195275 1.19531,-1.195313 h 12.070317 c 0.552472,0.0022 1.002001,-0.445555 1.003906,-0.998047 0.0022,-0.555364 -0.44855,-1.006098 -1.003906,-1.003906 z m 1.11914,8.585937 h 52.646489 l -2.771484,24.160157 c -0.150463,1.231445 -1.104987,2.170547 -2.294922,2.347656 -0.359314,0.05369 -0.64491,0.293084 -0.775391,0.605469 -0.248844,0.550715 -0.527039,1.090348 -0.804687,1.625 h -39.353515 c -0.2809,-0.496744 -0.49868,-0.979782 -0.77344,-1.542969 h -0.002 c -0.1121,-0.352018 -0.41462,-0.629323 -0.80469,-0.6875 -1.19007,-0.17726 -2.14448,-1.114257 -2.29492,-2.345703 v -0.0078 z m 4.46094,6.6875 v 3.292969 c 0,1.753021 1.44422,3.195313 3.19727,3.195313 1.75305,0 3.195311,-1.442292 3.195311,-3.195313 v -3.292969 c 0,-1.75302 -1.442281,-3.195312 -3.236321,-3.195312 -1.75686,0.04413 -3.15626,1.469683 -3.15626,3.195312 z m 9.339846,0 v 3.292969 c 0,1.753021 1.43445,3.195313 3.1875,3.195313 1.753047,0 3.197266,-1.442292 3.197266,-3.195313 v -3.292969 c 0,-1.75302 -1.444238,-3.195312 -3.238281,-3.195312 -1.756634,0.04413 -3.146485,1.469683 -3.146485,3.195312 z m 9.330078,0 v 3.292969 c 0,1.753021 1.436399,3.195313 3.189454,3.195313 1.753046,0 3.195312,-1.442292 3.195312,-3.195313 v -3.292969 c 0,-1.75302 -1.442284,-3.195312 -3.236328,-3.195312 -1.756633,0.04413 -3.148438,1.469683 -3.148438,3.195312 z m 9.330078,0 v 3.292969 c 0,1.753021 1.444215,3.195313 3.197266,3.195313 1.753047,0 3.1875,-1.442292 3.1875,-3.195313 v -3.292969 c 0,-1.75302 -1.434472,-3.195312 -3.228515,-3.195312 -1.756857,0.04413 -3.156251,1.469683 -3.156251,3.195312 z m 9.330079,0 v 3.292969 c 0,1.753021 1.444211,3.195313 3.197265,3.195313 1.753047,0 3.189453,-1.442292 3.189453,-3.195313 v -3.292969 c 0,-1.75302 -1.436425,-3.195312 -3.230468,-3.195312 -1.756857,0.04413 -3.15625,1.469683 -3.15625,3.195312 z M -101.95117,37.75 c 0.67965,0 1.19531,0.515716 1.19531,1.195312 v 3.292969 c 0,0.679597 -0.51568,1.195313 -1.19531,1.195313 -0.67963,0 -1.19531,-0.515716 -1.19531,-1.195313 v -3.292969 c 0,-0.679596 0.51566,-1.195312 1.19531,-1.195312 z m 9.330076,0 c 0.679646,0 1.197266,0.515716 1.197266,1.195312 v 3.292969 c 0,0.679597 -0.517642,1.195313 -1.197266,1.195313 -0.679627,0 -1.195312,-0.515716 -1.195312,-1.195313 v -3.292969 c 0,-0.679596 0.515666,-1.195312 1.195312,-1.195312 z m 9.332032,0 c 0.679645,0 1.195312,0.515716 1.195312,1.195312 v 3.292969 c 0,0.679597 -0.515689,1.195313 -1.195312,1.195313 -0.679631,0 -1.189454,-0.515716 -1.189454,-1.195313 v -3.292969 c 0,-0.679596 0.5098,-1.195312 1.189454,-1.195312 z m 9.33789,0 c 0.679646,0 1.1875,0.515716 1.1875,1.195312 v 3.292969 c 0,0.679597 -0.507877,1.195313 -1.1875,1.195313 -0.679627,0 -1.197266,-0.515716 -1.197266,-1.195313 v -3.292969 c 0,-0.679596 0.51762,-1.195312 1.197266,-1.195312 z m 9.330078,0 c 0.679646,0 1.195313,0.515716 1.195313,1.195312 v 3.292969 c 0,0.679597 -0.515689,1.195313 -1.195313,1.195313 -0.679631,0 -1.195316,-0.515716 -1.195312,-1.195313 v -3.292969 c 0,-0.679596 0.515659,-1.195312 1.195312,-1.195312 z m -32.664062,10.076172 c -1.753055,0 -3.197274,1.444207 -3.197264,3.197266 v 3.291015 c 0,1.753058 1.444232,3.197266 3.197264,3.197266 1.753028,0 3.195312,-1.444208 3.195312,-3.197266 v -3.291015 c 0,-1.753059 -1.442265,-3.197266 -3.195312,-3.197266 z m 9.330078,0 c -1.753051,0 -3.189453,1.444207 -3.189453,3.197266 v 3.291015 c 0,1.753058 1.436421,3.197266 3.189453,3.197266 1.753028,0 3.195312,-1.444208 3.195312,-3.197266 v -3.291015 c 0,-1.753059 -1.442261,-3.197266 -3.195312,-3.197266 z m 9.33789,0 c -1.753054,0 -3.197265,1.444207 -3.197265,3.197266 v 3.291015 c 0,1.753058 1.444234,3.197266 3.197265,3.197266 1.753029,0 3.189454,-1.444208 3.189454,-3.197266 v -3.291015 c 0,-1.753059 -1.436407,-3.197266 -3.189454,-3.197266 z m 9.330079,0 c -1.753051,0 -3.195313,1.444207 -3.195313,3.197266 v 3.291015 c 0,1.753058 1.442281,3.197266 3.195313,3.197266 1.753031,0 3.189453,-1.444208 3.189453,-3.197266 v -3.291015 c 0,-1.753059 -1.436403,-3.197266 -3.189453,-3.197266 z m -27.998047,2 c 0.679623,0 1.195312,0.517631 1.195312,1.197266 v 3.291015 c 0,0.679673 -0.515666,1.197266 -1.195312,1.197266 -0.679654,0 -1.197266,-0.517593 -1.197266,-1.197266 v -3.291015 c 0,-0.679635 0.517635,-1.197266 1.197266,-1.197266 z m 9.330078,0 c 0.679631,0 1.195312,0.517631 1.195312,1.197266 v 3.291015 c 0,0.679673 -0.515662,1.197266 -1.195312,1.197266 -0.679646,0 -1.195313,-0.517593 -1.195313,-1.197266 v -3.291015 c 0,-0.679635 0.515686,-1.197266 1.195313,-1.197266 z m 9.33789,0 c 0.679624,0 1.189454,0.517631 1.189454,1.197266 v 3.291015 c 0,0.679673 -0.509808,1.197266 -1.189454,1.197266 -0.679653,0 -1.195316,-0.517593 -1.195312,-1.197266 v -3.291015 c 0,-0.679635 0.515682,-1.197266 1.195312,-1.197266 z m 9.330079,0 c 0.67963,0 1.197265,0.517631 1.197265,1.197266 v 3.291015 c 0,0.679673 -0.517616,1.197266 -1.197265,1.197266 -0.679646,0 -1.195313,-0.517593 -1.195313,-1.197266 v -3.291015 c 0,-0.679635 0.515686,-1.197266 1.195313,-1.197266 z"
         transform="matrix(0.26458334,0,0,0.26458334,0,280.06666)"
         sodipodi:nodetypes="scccccccccccccccccccsscccsccccccccsscccccccccccssssscccccsscccccssscccsssssssccccscccccccccccccssssscsssssscsssssscsssssscsssssscssssssssssssssssssssssssssssssssscsssssssssssssssssssssssssssssssssssssssssssssssscsssssssss" />
    </g>
  </g>
</svg>
